<?xml version="1.0" encoding="utf-8"?>
<!-- Generator: Adobe Illustrator 21.0.0, SVG Export Plug-In . SVG Version: 6.00 Build 0)  -->
<svg version="1.1" id="Ebene_1" xmlns="http://www.w3.org/2000/svg" xmlns:xlink="http://www.w3.org/1999/xlink" x="0px" y="0px"
	 viewBox="0 0 626.9 626.9" style="enable-background:new 0 0 626.9 626.9;" xml:space="preserve">
<style type="text/css">
	.st0{fill:#FFFFFF;}
</style>
<g>
	<path class="st0" d="M313.5,8.4C145.2,8.4,8.4,145.2,8.4,313.5s136.9,305.1,305.1,305.1s305.1-136.9,305.1-305.1
		S481.7,8.4,313.5,8.4"/>
</g>
<polygon points="383,435 354.2,435 352.3,413.8 274.6,413.8 272.7,435 243.9,435 243.9,456.2 187.5,456.2 187.5,466.8 439.4,466.8 
	439.4,456.2 383,456.2 "/>
<polygon points="276.5,392.6 350.5,392.6 348.6,371.4 278.3,371.4 "/>
<polygon points="285.8,286.5 283.9,307.7 343,307.7 341.1,286.5 "/>
<polygon points="280.2,350.1 346.7,350.1 344.8,328.9 282.1,328.9 "/>
<g>
	<path d="M313.5,199c-4.3,0-8.1,2.6-9.7,6.4c-0.6,1.3-0.9,2.8-0.9,4.3h4.8c0-1.7,0.7-3.2,1.9-4.3c1-1,2.4-1.6,3.9-1.6
		c1.5,0,2.9,0.6,3.9,1.6c1.2,1.1,1.9,2.6,1.9,4.3h4.8c0-1.5-0.3-3-0.9-4.3C321.5,201.6,317.8,199,313.5,199"/>
	<path d="M450.6,173.9l-105.4,20.6v-6.2c3,0,4.2-3.8,1.8-5.6l-28.5-21c-1.5-1.1-3.2-1.6-5-1.6c-1.8,0-3.6,0.6-5,1.6l-28.5,21
		c-2.4,1.8-1.2,5.6,1.8,5.6v6.2l-105.4-20.6l118.8,33.5v-13.2h36.6v13.2L450.6,173.9z"/>
	<path d="M450.6,251.7L450.6,251.7z"/>
</g>
<polygon points="331.8,218.2 331.8,228.4 324.1,228.4 324.1,216 302.8,216 302.8,228.4 295.1,228.4 295.1,218.2 176.4,251.7 
	281.7,231 281.7,244.1 289.6,244.1 287.7,265.3 339.2,265.3 337.4,244.1 345.2,244.1 345.2,231 450.6,251.7 "/>
</svg>
