<?xml version="1.0" encoding="utf-8"?>
<!-- Generator: Adobe Illustrator 16.0.3, SVG Export Plug-In . SVG Version: 6.00 Build 0)  -->
<!DOCTYPE svg PUBLIC "-//W3C//DTD SVG 1.1//EN" "http://www.w3.org/Graphics/SVG/1.1/DTD/svg11.dtd">
<svg version="1.1" id="Ebene_1" xmlns="http://www.w3.org/2000/svg" xmlns:xlink="http://www.w3.org/1999/xlink" x="0px" y="0px"
	 width="510.88px" height="99.8px" viewBox="0 0 510.88 99.8" enable-background="new 0 0 510.88 99.8" xml:space="preserve">
<g id="Logo">
	<g>
		<polygon fill="#010202" points="280.295,1.992 280.295,97.389 337.993,97.389 337.993,82.489 295.294,82.489 295.294,56.69 
			331.593,56.69 331.593,41.69 295.294,41.69 295.294,16.991 335.093,16.991 335.093,1.992 		"/>
		<polygon fill="#010202" points="250.795,1.992 224.196,64.19 197.497,1.992 181.298,1.992 224.196,99.689 266.995,1.992 		"/>
		<path fill="#010202" d="M42.902,35.291L55.401,64.59H30.303L42.902,35.291z M42.902-0.107L0.104,97.589h16.199l7.7-17.999h37.898
			l7.7,17.999h16.199L42.902-0.107z"/>
		<g>
			<path fill="#010202" d="M382.892,17.191h13.399c6.5,0,12.199,4.9,12.699,11.399c0.5,6.7-4.899,12.4-11.3,13.1l-7.699-13.399
				C387.691,24.392,382.892,17.191,382.892,17.191 M405.49,55.291c9.3-3.2,16.3-11.301,18-21.2c0.1-0.3,0.1-0.6,0.1-0.899
				c0.1-0.4,0.1-0.9,0.2-1.301c0.1-0.8,0.1-1.6,0.1-2.499c0-15.1-12.3-27.399-27.399-27.399h-21.999h-17.099l12.299,21.299
				l10.6,18.3h-20.999v55.698h14.999V56.49h14.7l23.399,40.799h17.299L405.49,55.291z"/>
		</g>
		<polygon fill="#010202" points="493.787,1.992 471.688,41.791 449.489,1.992 432.289,1.992 464.188,56.591 464.188,97.389 
			479.088,97.389 479.088,56.591 510.987,1.992 		"/>
		<g>
			<path fill="#010202" d="M131.6,82.489H114V17.292h17.499c18,0,32.6,14.599,32.6,32.599
				C164.099,67.89,149.599,82.489,131.6,82.489 M131.6,2.192H99.101v95.297H131.6l0,0l0,0c26.299,0,47.599-21.3,47.599-47.599
				C179.098,23.691,157.799,2.192,131.6,2.192"/>
		</g>
	</g>
</g>
</svg>
