<svg xmlns="http://www.w3.org/2000/svg" viewBox="0 0 409.6 346.48"><defs><style>.cls-1{fill:#1d1d1b;}.cls-2{fill:#f3efa1;}</style></defs><g id="Ebene_2" data-name="Ebene 2"><g id="Ebene_1-2" data-name="Ebene 1"><path class="cls-1" d="M409.6,107V302.59c-.71,2.66-1.34,5.35-2.15,8-6.79,21.87-26.28,35.83-50.16,35.84q-146.69,0-293.38,0c-4.53,0-9.07.16-13.59,0-21.15-1-36.66-10.77-45.84-29.89-2.08-4.35-3-9.25-4.48-13.9V43.87a5.86,5.86,0,0,0,.67-1.41C5.47,17.06,25.6.17,51.55.07c28.66-.11,57.32-.06,86,0,15.86,0,29.28,5.68,40.18,17.34C189.35,29.85,201.28,42,212.83,54.56c5.53,6,11.88,8.66,20.1,8.62q62.58-.32,125.17,0c19.84.07,35.19,8.74,45,26C406.17,94.57,407.48,101,409.6,107ZM204.77,315.38c50.66,0,101.32-.14,152,.09,13.08.06,22-9.11,21.91-21.83q-.46-88.81,0-177.63c.08-13.94-10.16-22.11-22.16-22-41.59.36-83.18,0-124.77.18-16.29,0-29.73-5.83-40.79-17.67C179,63.67,166.73,51,154.69,38.22A21.78,21.78,0,0,0,138,31.06c-28.67,0-57.33,0-86,0-12.82,0-20.91,8.12-20.92,21q0,121.16,0,242.31a24.85,24.85,0,0,0,.49,5.92c2.38,9.57,10,15.07,20.81,15.07Z"/><path class="cls-2" d="M204.77,315.38H52.4c-10.81,0-18.43-5.5-20.81-15.07a24.85,24.85,0,0,1-.49-5.92q0-121.15,0-242.31c0-12.86,8.1-21,20.92-21,28.66,0,57.32,0,86,0a21.78,21.78,0,0,1,16.69,7.16C166.73,51,179,63.67,191,76.52c11.06,11.84,24.5,17.72,40.79,17.67,41.59-.13,83.18.18,124.77-.18,12-.11,22.24,8.06,22.16,22q-.53,88.81,0,177.63c.07,12.72-8.83,21.89-21.91,21.83C306.09,315.24,255.43,315.38,204.77,315.38Z"/><path class="cls-1" d="M333.13,157.78c0-10.73-2.35-19.95-7.33-28.5a54.43,54.43,0,0,0-20.52-20.17,52.34,52.34,0,0,0-22-6.81c-10.82-.84-21.34,1-30.66,6.76-17,10.45-33.7,21.36-50.6,31.95-1.79,1.12-2.68,2.31-2.43,4.28.27,2.19,1.87,3,3.84,3.49,7.75,2,15.29,4.55,21.89,9.31,2.64,1.9,5.24,1.85,8.13,0,11-7.19,22.25-14.12,33.33-21.26,9.08-5.86,22.65-3.4,29.54,4.75a23.61,23.61,0,0,1-5.61,35c-16.5,10.12-32.69,20.75-49,31.13-4.2,2.66-8.25,5.76-12.79,7.65-10.37,4.32-21.57,1.09-28.32-8.28-2.44-3.38-5.42-6-9.64-7.05-5.19-1.33-11.94.46-15.05,4.28-4.48,5.53-5.51,12-2.46,17.23,8.17,14,20.27,22.43,36.28,25.54,14.51,2.82,27.86,0,40.16-7.61,18.38-11.39,36.58-23.08,54.69-34.88a88,88,0,0,0,14.21-11.27A47.54,47.54,0,0,0,329.06,177,56.38,56.38,0,0,0,333.13,157.78Zm-141.44,1.14c-11.43,0-20.87,2.08-29.35,7.37Q138.4,181.2,114.71,196.5A230.67,230.67,0,0,0,94.3,210.63c-7.81,6.3-12.61,14.88-15.5,24.46a54.05,54.05,0,0,0,40.83,68.6,52.29,52.29,0,0,0,37.08-5.53c6.21-3.49,12.17-7.43,18.2-11.24,10.92-6.9,21.84-13.8,32.64-20.88a6.17,6.17,0,0,0,2.42-4.19c.17-2.31-1.93-3-3.93-3.59-7.48-2.05-14.82-4.41-21.3-8.94-2-1.42-4.44-3-7.2-1.19-8.13,5.24-16.19,10.61-24.45,15.64-5.84,3.55-11,8.44-18.17,9.57s-13.86-.4-19.27-5.15c-6.38-5.6-9.19-12.93-7.66-21.5.86-4.86,2.56-9.59,6.64-12.58,6.38-4.68,13.07-9,19.74-13.23q21.48-13.75,43.07-27.31a20.31,20.31,0,0,1,6.25-2.86c10.16-2.18,18.64.57,25,9.08,2.58,3.44,5.62,6.34,10,7.36a15.25,15.25,0,0,0,19-15.57c-.23-4.8-2.66-8.33-5.28-11.72a52.86,52.86,0,0,0-17-14.34A55,55,0,0,0,191.69,158.92Z"/><path class="cls-1" d="M333.13,157.78A56.38,56.38,0,0,1,329.06,177a47.54,47.54,0,0,1-10.33,16.27,88,88,0,0,1-14.21,11.27c-18.11,11.8-36.31,23.49-54.69,34.88-12.3,7.61-25.65,10.43-40.16,7.61-16-3.11-28.11-11.49-36.28-25.54-3-5.25-2-11.7,2.46-17.23,3.11-3.82,9.86-5.61,15.05-4.28,4.22,1.08,7.2,3.67,9.64,7.05,6.75,9.37,18,12.6,28.32,8.28,4.54-1.89,8.59-5,12.79-7.65,16.34-10.38,32.53-21,49-31.13a23.61,23.61,0,0,0,5.61-35c-6.89-8.15-20.46-10.61-29.54-4.75-11.08,7.14-22.29,14.07-33.33,21.26-2.89,1.89-5.49,1.94-8.13,0-6.6-4.76-14.14-7.31-21.89-9.31-2-.51-3.57-1.3-3.84-3.49-.25-2,.64-3.16,2.43-4.28,16.9-10.59,33.61-21.5,50.6-31.95,9.32-5.73,19.84-7.6,30.66-6.76a52.34,52.34,0,0,1,22,6.81,54.43,54.43,0,0,1,20.52,20.17C330.78,137.83,333.12,147.05,333.13,157.78Z"/><path class="cls-1" d="M191.69,158.92a55,55,0,0,1,23.76,6.6,52.86,52.86,0,0,1,17,14.34c2.62,3.39,5.05,6.92,5.28,11.72a15.25,15.25,0,0,1-19,15.57c-4.41-1-7.45-3.92-10-7.36-6.39-8.51-14.87-11.26-25-9.08a20.31,20.31,0,0,0-6.25,2.86q-21.58,13.56-43.07,27.31c-6.67,4.28-13.36,8.55-19.74,13.23-4.08,3-5.78,7.72-6.64,12.58-1.53,8.57,1.28,15.9,7.66,21.5,5.41,4.75,12,6.29,19.27,5.15s12.33-6,18.17-9.57c8.26-5,16.32-10.4,24.45-15.64,2.76-1.77,5.17-.23,7.2,1.19,6.48,4.53,13.82,6.89,21.3,8.94,2,.55,4.1,1.28,3.93,3.59a6.17,6.17,0,0,1-2.42,4.19c-10.8,7.08-21.72,14-32.64,20.88-6,3.81-12,7.75-18.2,11.24a52.29,52.29,0,0,1-37.08,5.53,53.51,53.51,0,0,1-24-11.66A54.47,54.47,0,0,1,78.8,235.09c2.89-9.58,7.69-18.16,15.5-24.46a230.67,230.67,0,0,1,20.41-14.13q23.72-15.28,47.63-30.21C170.82,161,180.26,158.9,191.69,158.92Z"/></g></g></svg>